<?xml version="1.0" encoding="UTF-8"?>
<svg version="1.1" xmlns="http://www.w3.org/2000/svg" width="413" height="415">
<path d="M0 0 C1.57114553 -0.00763059 3.14228735 -0.01605963 4.71342468 -0.02522278 C8.96349418 -0.0470823 13.21349178 -0.05595479 17.46361113 -0.06104922 C20.12312506 -0.06470207 22.78262041 -0.07094683 25.44212723 -0.07805061 C34.73209708 -0.10251264 44.02201132 -0.11559057 53.31201172 -0.11914062 C61.95311657 -0.12277631 70.59386635 -0.15268233 79.23486269 -0.19454521 C86.67037519 -0.22929714 94.10577023 -0.24468989 101.54136336 -0.24538666 C105.97501429 -0.24617761 110.40830282 -0.25483296 114.84186935 -0.28338432 C119.01339448 -0.30965038 123.18425882 -0.31172311 127.35582924 -0.29572868 C128.88035466 -0.29392112 130.40491887 -0.30054205 131.92936134 -0.31654739 C140.57239631 -0.40170868 148.31984608 -0.13394645 155.47119141 5.30639648 C159.73474789 10.44048009 161.56586189 15.25974988 161.64819336 21.91625977 C161.66744621 23.27885422 161.66744621 23.27885422 161.68708801 24.66897583 C161.69447495 25.64502777 161.70186188 26.62107971 161.70947266 27.62670898 C161.7175444 28.64054657 161.72561615 29.65438416 161.7339325 30.69894409 C161.74775603 32.84574686 161.75848592 34.99257145 161.76635742 37.1394043 C161.7778572 39.32338958 161.79827702 41.5073472 161.82788086 43.69116211 C161.87079056 46.85737082 161.88676088 50.02274469 161.89697266 53.18920898 C161.91448074 54.15311554 161.93198883 55.11702209 161.95002747 56.11013794 C161.92645805 63.58087255 160.58407616 70.85892143 155.43603516 76.56030273 C154.76701172 76.99213867 154.09798828 77.42397461 153.40869141 77.86889648 C152.73708984 78.32393555 152.06548828 78.77897461 151.37353516 79.24780273 C148.08378411 81.07844449 145.43428778 81.43067467 141.74458313 81.426651 C140.77283142 81.42802567 139.80107971 81.42940033 138.79988098 81.43081665 C137.73533188 81.42722137 136.67078278 81.4236261 135.57397461 81.41992188 C134.45187592 81.4200679 133.32977722 81.42021393 132.17367554 81.42036438 C128.45642173 81.41966646 124.73921773 81.41187966 121.02197266 81.40405273 C118.4479322 81.40218813 115.8738914 81.40076443 113.29985046 81.39976501 C107.21193613 81.39633406 101.12404241 81.38844867 95.03613585 81.37841552 C88.10512447 81.3672407 81.17411223 81.36174048 74.24309409 81.35672009 C59.98578329 81.3462657 45.72848863 81.3284735 31.47119141 81.30639648 C31.47119141 87.90639648 31.47119141 94.50639648 31.47119141 101.30639648 C34.45279297 101.27497559 34.45279297 101.27497559 37.49462891 101.24291992 C44.0843141 101.17824988 50.67392382 101.13238096 57.26383972 101.0991478 C61.25680369 101.07833056 65.24942227 101.05012159 69.2421875 101.00463867 C73.10015222 100.96096959 76.95778608 100.93721534 80.815979 100.92688751 C82.28311364 100.91953367 83.7502315 100.9051736 85.21722412 100.88347626 C94.96437456 100.745131 101.96832311 100.99930507 109.34619141 108.05639648 C113.77313907 114.82702233 113.77957965 122.0248662 113.77197266 129.86889648 C113.77625778 130.85962158 113.78054291 131.85034668 113.78495789 132.87109375 C113.79067328 134.95531453 113.79122216 137.03955524 113.78686523 139.1237793 C113.7837008 142.29697889 113.80721543 145.46924904 113.83251953 148.64233398 C113.8347925 150.67618699 113.83549603 152.71004247 113.83447266 154.74389648 C113.8436824 155.68370361 113.85289215 156.62351074 113.86238098 157.59179688 C113.81320272 164.65438355 112.52918322 169.95263204 108.78369141 176.05639648 C102.3316234 182.33408428 95.98646678 182.80535027 87.34960938 182.75958252 C85.91096382 182.73916324 84.47232452 182.71829938 83.03369141 182.69702148 C81.54297651 182.68954945 80.05225172 182.68386107 78.56152344 182.67987061 C74.66180705 182.66468971 70.76269851 182.62547494 66.86322021 182.58105469 C62.87455464 182.53993757 58.88578965 182.52182472 54.89697266 182.50170898 C47.08810355 182.4589717 39.27973305 182.39081419 31.47119141 182.30639648 C31.48007385 183.22379608 31.4889563 184.14119568 31.49810791 185.08639526 C31.57852144 193.76575364 31.63929127 202.44498546 31.67844009 211.12463188 C31.69924413 215.58609895 31.727429 220.04725614 31.77294922 224.50854492 C31.81666523 228.8203851 31.84038244 233.13192871 31.85070038 237.44397354 C31.85804584 239.08249703 31.872389 240.72100575 31.89411163 242.3594017 C32.11306103 259.57027566 32.11306103 259.57027566 27.47119141 267.30639648 C25.25244141 269.56030273 25.25244141 269.56030273 22.97119141 270.86889648 C22.21837891 271.32393555 21.46556641 271.77897461 20.68994141 272.24780273 C16.99419719 274.01108915 13.72020639 274.43431163 9.64599609 274.4675293 C8.69110291 274.47713684 7.73620972 274.48674438 6.75238037 274.49664307 C5.21326996 274.50301788 5.21326996 274.50301788 3.64306641 274.50952148 C2.58009338 274.51522156 1.51712036 274.52092163 0.42193604 274.52679443 C-1.82742317 274.53623669 -4.07679616 274.54277534 -6.32617188 274.54663086 C-9.75203876 274.55632077 -13.1773016 274.58734569 -16.60302734 274.61889648 C-18.79182588 274.62542854 -20.98062869 274.63067821 -23.16943359 274.63452148 C-24.69639862 274.65304169 -24.69639862 274.65304169 -26.25421143 274.67193604 C-33.6450181 274.64901046 -39.50449007 273.86026546 -45.34130859 268.93139648 C-50.9462866 262.20542287 -51.67813617 257.12892548 -51.66925049 248.55407715 C-51.67222161 247.66074472 -51.67519273 246.76741229 -51.67825389 245.84700918 C-51.68694021 242.84713405 -51.68844911 239.84729883 -51.68994141 236.84741211 C-51.69456976 234.69883133 -51.69959444 232.55025137 -51.70498657 230.40167236 C-51.71811405 224.55831496 -51.72455664 218.71496905 -51.72899723 212.8715992 C-51.73192841 209.21910065 -51.73603339 205.56660524 -51.7405014 201.91410828 C-51.7541795 190.48146024 -51.76384368 179.04881938 -51.76770329 167.61616373 C-51.77217988 154.42880042 -51.78970795 141.24154097 -51.81870389 128.05420923 C-51.84034657 117.85614641 -51.85040902 107.65811275 -51.85174441 97.46002722 C-51.85279092 91.37197725 -51.85866549 85.28402488 -51.87656403 79.19599915 C-51.89308854 73.46355863 -51.8951789 67.7312886 -51.88642502 61.9988327 C-51.88565689 59.90109042 -51.88996756 57.8033388 -51.89988327 55.70561981 C-51.96982095 39.98053828 -51.72634661 25.33206531 -40.48974609 13.08374023 C-28.50650287 1.75682305 -15.83461033 0.00488103 0 0 Z " fill="#202E71" transform="translate(148.52880859375,75.693603515625)"/>
<path d="M0 0 C1.57114553 -0.00763059 3.14228735 -0.01605963 4.71342468 -0.02522278 C8.96349418 -0.0470823 13.21349178 -0.05595479 17.46361113 -0.06104922 C20.12312506 -0.06470207 22.78262041 -0.07094683 25.44212723 -0.07805061 C34.73209708 -0.10251264 44.02201132 -0.11559057 53.31201172 -0.11914062 C61.95311657 -0.12277631 70.59386635 -0.15268233 79.23486269 -0.19454521 C86.67037519 -0.22929714 94.10577023 -0.24468989 101.54136336 -0.24538666 C105.97501429 -0.24617761 110.40830282 -0.25483296 114.84186935 -0.28338432 C119.01339448 -0.30965038 123.18425882 -0.31172311 127.35582924 -0.29572868 C128.88035466 -0.29392112 130.40491887 -0.30054205 131.92936134 -0.31654739 C140.57239631 -0.40170868 148.31984608 -0.13394645 155.47119141 5.30639648 C159.73474789 10.44048009 161.56586189 15.25974988 161.64819336 21.91625977 C161.66744621 23.27885422 161.66744621 23.27885422 161.68708801 24.66897583 C161.69447495 25.64502777 161.70186188 26.62107971 161.70947266 27.62670898 C161.7175444 28.64054657 161.72561615 29.65438416 161.7339325 30.69894409 C161.74775603 32.84574686 161.75848592 34.99257145 161.76635742 37.1394043 C161.7778572 39.32338958 161.79827702 41.5073472 161.82788086 43.69116211 C161.87079056 46.85737082 161.88676088 50.02274469 161.89697266 53.18920898 C161.91448074 54.15311554 161.93198883 55.11702209 161.95002747 56.11013794 C161.92645805 63.58087255 160.58407616 70.85892143 155.43603516 76.56030273 C154.76701172 76.99213867 154.09798828 77.42397461 153.40869141 77.86889648 C152.73708984 78.32393555 152.06548828 78.77897461 151.37353516 79.24780273 C148.08378411 81.07844449 145.43428778 81.43067467 141.74458313 81.426651 C140.77283142 81.42802567 139.80107971 81.42940033 138.79988098 81.43081665 C137.73533188 81.42722137 136.67078278 81.4236261 135.57397461 81.41992188 C134.45187592 81.4200679 133.32977722 81.42021393 132.17367554 81.42036438 C128.45642173 81.41966646 124.73921773 81.41187966 121.02197266 81.40405273 C118.4479322 81.40218813 115.8738914 81.40076443 113.29985046 81.39976501 C107.21193613 81.39633406 101.12404241 81.38844867 95.03613585 81.37841552 C88.10512447 81.3672407 81.17411223 81.36174048 74.24309409 81.35672009 C59.98578329 81.3462657 45.72848863 81.3284735 31.47119141 81.30639648 C31.47119141 87.90639648 31.47119141 94.50639648 31.47119141 101.30639648 C34.45279297 101.27497559 34.45279297 101.27497559 37.49462891 101.24291992 C44.0843141 101.17824988 50.67392382 101.13238096 57.26383972 101.0991478 C61.25680369 101.07833056 65.24942227 101.05012159 69.2421875 101.00463867 C73.10015222 100.96096959 76.95778608 100.93721534 80.815979 100.92688751 C82.28311364 100.91953367 83.7502315 100.9051736 85.21722412 100.88347626 C94.96437456 100.745131 101.96832311 100.99930507 109.34619141 108.05639648 C113.77313907 114.82702233 113.77957965 122.0248662 113.77197266 129.86889648 C113.77625778 130.85962158 113.78054291 131.85034668 113.78495789 132.87109375 C113.79067328 134.95531453 113.79122216 137.03955524 113.78686523 139.1237793 C113.7837008 142.29697889 113.80721543 145.46924904 113.83251953 148.64233398 C113.8347925 150.67618699 113.83549603 152.71004247 113.83447266 154.74389648 C113.8436824 155.68370361 113.85289215 156.62351074 113.86238098 157.59179688 C113.81320272 164.65438355 112.52918322 169.95263204 108.78369141 176.05639648 C103.73201629 180.97153984 98.38533221 182.7803261 91.40478516 182.70678711 C90.60169922 182.6777832 89.79861328 182.6487793 88.97119141 182.61889648 C88.16810547 182.60922852 87.36501953 182.59956055 86.53759766 182.58959961 C81.45297596 182.49482951 76.50527274 182.01647906 71.47119141 181.30639648 C71.47119141 180.97639648 71.47119141 180.64639648 71.47119141 180.30639648 C72.23262451 180.28134033 72.99405762 180.25628418 73.77856445 180.23046875 C77.23876517 180.11420601 80.69871394 179.9916167 84.15869141 179.86889648 C85.356875 179.82958008 86.55505859 179.79026367 87.78955078 179.74975586 C88.94648438 179.70786133 90.10341797 179.6659668 91.29541016 179.62280273 C92.35848389 179.58614502 93.42155762 179.5494873 94.5168457 179.51171875 C97.25323672 179.32154398 99.79975872 178.91324578 102.47119141 178.30639648 C102.47119141 177.64639648 102.47119141 176.98639648 102.47119141 176.30639648 C103.27556641 176.05889648 104.07994141 175.81139648 104.90869141 175.55639648 C107.57908229 174.61129032 107.57908229 174.61129032 108.15869141 172.55639648 C108.31337891 171.44264648 108.31337891 171.44264648 108.47119141 170.30639648 C108.80143311 169.47930176 109.1316748 168.65220703 109.47192383 167.80004883 C110.78893944 163.19548167 110.77665184 158.92364029 110.77197266 154.15795898 C110.77840034 152.70092056 110.77840034 152.70092056 110.78495789 151.21444702 C110.79068506 149.16535214 110.79121337 147.11623694 110.78686523 145.06713867 C110.78370884 141.94861794 110.80717266 138.83104987 110.83251953 135.71264648 C110.83479319 133.71525184 110.83549571 131.71785466 110.83447266 129.72045898 C110.84828728 128.3341478 110.84828728 128.3341478 110.86238098 126.91983032 C110.81522205 120.24994844 109.79843799 114.98971426 106.16772461 109.2434082 C100.3460104 103.7248169 93.24844444 104.41265936 85.65869141 104.43139648 C84.2400391 104.41373903 82.82141553 104.39361063 81.40283203 104.37109375 C77.79550097 104.32157236 74.18912072 104.30790276 70.58148193 104.30780029 C68.53243302 104.30643722 66.48358147 104.29751283 64.43457031 104.28540039 C57.11288026 104.24361522 49.79274272 104.24455906 42.47119141 104.30639648 C42.47119141 103.97639648 42.47119141 103.64639648 42.47119141 103.30639648 C41.59076172 103.31799805 40.71033203 103.32959961 39.80322266 103.34155273 C38.06105469 103.35508789 38.06105469 103.35508789 36.28369141 103.36889648 C35.13513672 103.38049805 33.98658203 103.39209961 32.80322266 103.40405273 C29.47119141 103.30639648 29.47119141 103.30639648 27.27246094 102.82226562 C23.62847949 102.15120646 20.01260247 102.05353709 16.31884766 101.95483398 C15.54109482 101.93168121 14.76334198 101.90852844 13.96202087 101.88467407 C12.32231678 101.83720779 10.68254733 101.79195372 9.04272461 101.7487793 C6.54529461 101.6817081 4.04835681 101.60384913 1.55126953 101.52514648 C-0.04701947 101.48022018 -1.64532646 101.43592835 -3.24365234 101.39233398 C-3.98445541 101.36843597 -4.72525848 101.34453796 -5.48851013 101.31991577 C-17.97321129 101.02083504 -29.4175852 104.64009483 -38.52880859 113.30639648 C-39.89176155 114.94892953 -41.23994999 116.60510313 -42.52880859 118.30639648 C-43.18880859 118.30639648 -43.84880859 118.30639648 -44.52880859 118.30639648 C-45.60406053 120.95868461 -46.62337011 123.59008103 -47.52880859 126.30639648 C-48.18880859 126.30639648 -48.84880859 126.30639648 -49.52880859 126.30639648 C-49.52658798 125.61592728 -49.52436737 124.92545807 -49.52207947 124.21406555 C-49.49995631 117.02780678 -49.48487255 109.84155768 -49.47387695 102.65527344 C-49.46941308 99.97329547 -49.462455 97.29134119 -49.45336914 94.609375 C-49.44124006 90.75446903 -49.43556572 86.89959931 -49.43115234 83.04467773 C-49.42599106 81.84555252 -49.42082977 80.64642731 -49.41551208 79.41096497 C-49.41543655 78.29018051 -49.41536102 77.16939606 -49.4152832 76.01464844 C-49.41306259 75.03091751 -49.41084198 74.04718658 -49.40855408 73.03364563 C-49.52654814 70.35766128 -49.92932527 67.9130531 -50.52880859 65.30639648 C-50.85880859 65.30639648 -51.18880859 65.30639648 -51.52880859 65.30639648 C-51.61715745 60.88985956 -51.66964847 56.47355501 -51.71630859 52.05639648 C-51.74144531 50.82147461 -51.76658203 49.58655273 -51.79248047 48.31420898 C-51.89755873 35.00429576 -49.72243937 23.14772965 -40.48974609 13.08374023 C-28.50650287 1.75682305 -15.83461033 0.00488103 0 0 Z " fill="#434AB6" transform="translate(148.52880859375,75.693603515625)"/>
<path d="M0 0 C1.01431872 -0.00226556 2.02863744 -0.00453111 3.0736931 -0.00686532 C6.46501868 -0.01318421 9.85630408 -0.01237731 13.24763489 -0.0115509 C15.68236848 -0.01454374 18.11710161 -0.01794656 20.55183411 -0.02172852 C26.47518474 -0.02964365 32.39852599 -0.03278267 38.32188084 -0.03334089 C43.13997636 -0.03381687 47.95806861 -0.0358757 52.7761631 -0.03904152 C66.45306434 -0.04784451 80.12995775 -0.05246155 93.80686184 -0.05171105 C94.91183893 -0.05165111 94.91183893 -0.05165111 96.03913879 -0.05158997 C96.77669564 -0.05154909 97.51425248 -0.0515082 98.27415953 -0.05146609 C110.21899544 -0.0510599 122.16379978 -0.06062336 134.10862657 -0.07472833 C146.38988314 -0.08911546 158.67112433 -0.09599721 170.95238954 -0.09513456 C177.84073203 -0.09480335 184.72904145 -0.09751664 191.61737633 -0.10831261 C198.09918905 -0.11840672 204.5809501 -0.11805841 211.06276703 -0.11079597 C213.43625554 -0.10975268 215.80974844 -0.11209782 218.18322945 -0.11815643 C244.23593073 -0.18032985 267.15616138 3.68986102 286.93049622 22.15715027 C293.11336776 28.74353553 297.96453788 35.95336653 302.09846497 43.94621277 C302.41170715 44.53652283 302.72494934 45.12683289 303.04768372 45.73503113 C310.46992439 60.80352775 310.36297597 75.94955466 310.30354309 92.37394714 C310.30897167 94.90351767 310.31609844 97.43308504 310.32478333 99.96264648 C310.34105279 106.08785615 310.33877764 112.21280823 310.32713276 118.33802092 C310.31805546 123.32134137 310.31689288 128.30460698 310.32122803 133.28793335 C310.32184096 134.00038872 310.32245389 134.71284409 310.3230854 135.44688901 C310.32436445 136.89476305 310.32566131 138.34263707 310.32697576 139.79051107 C310.33834968 153.32958956 310.32531815 166.86855926 310.3037743 180.40761989 C310.2859062 191.99492011 310.28901121 203.58205997 310.30744934 215.1693573 C310.32891266 228.66389998 310.33725134 242.15834761 310.32500029 255.65290499 C310.32372625 257.09510071 310.32246876 258.53729644 310.32122803 259.97949219 C310.32030237 261.04354578 310.32030237 261.04354578 310.31935802 262.12909541 C310.31592145 267.09958599 310.32169667 272.07001568 310.33114624 277.04049683 C310.34361363 283.74495951 310.33458797 290.44907516 310.31156921 297.1535244 C310.30630872 299.60476877 310.3077499 302.05603875 310.31661987 304.50727272 C310.40282457 330.76347489 304.75213749 351.07286956 286.45002747 370.62980652 C270.87270974 385.56022567 251.79286506 392.28500496 230.41575623 392.28088379 C229.38454757 392.28456048 228.35333892 392.28823717 227.29088151 392.29202527 C223.8421347 392.30302106 220.39341806 392.306899 216.94465637 392.31071472 C214.46877447 392.31698257 211.9928935 392.32362966 209.51701355 392.33062744 C202.09227276 392.34982147 194.66753999 392.36045141 187.2427817 392.36935523 C183.73837005 392.37374776 180.23395989 392.37911209 176.72954941 392.3843441 C165.06616594 392.40135158 153.40278338 392.41584271 141.73938942 392.42309284 C138.71666589 392.42500245 135.69394237 392.42692282 132.67121887 392.42887878 C131.92002051 392.42936252 131.16882214 392.42984626 130.39486019 392.43034466 C118.24320628 392.43863375 106.09165115 392.4639538 93.94004031 392.49645946 C81.43840747 392.52962625 68.93682467 392.5475503 56.43514764 392.55073708 C49.42643054 392.55289342 42.41785746 392.5615125 35.4091835 392.58719826 C28.80830525 392.61133495 22.20763805 392.61467097 15.60670853 392.60443687 C13.19499856 392.60394386 10.78327546 392.61019432 8.37160492 392.62399292 C-16.9534181 392.76068788 -38.92784774 388.72760475 -57.75309753 370.5912323 C-76.93134862 351.45785012 -82.35487762 328.12606289 -82.47284853 301.8230567 C-82.47401896 299.08378917 -82.46562241 296.34464513 -82.45695496 293.60539246 C-82.45803094 291.60383034 -82.45997428 289.60226854 -82.46270752 287.60070801 C-82.46751486 282.20887509 -82.45994657 276.81712623 -82.44975448 271.42530346 C-82.44087876 265.72916977 -82.44273343 260.033038 -82.44311523 254.3368988 C-82.4421811 244.75434493 -82.4335404 235.17182287 -82.41984558 225.58927917 C-82.40421282 214.61233295 -82.39884462 203.63542171 -82.39958113 192.65846515 C-82.40026521 180.85835162 -82.39326741 169.05825106 -82.38413453 157.25814152 C-82.38203397 153.91611491 -82.38129757 150.57409049 -82.38089561 147.23206329 C-82.377408 133.19877347 -82.33100748 119.16653213 -82.21403503 105.13371277 C-82.20729279 104.2316189 -82.20055055 103.32952503 -82.19360399 102.40009499 C-82.153235 97.24637168 -82.09076539 92.09380056 -81.99420989 86.94081163 C-81.967813 85.41370625 -81.94729827 83.88648358 -81.93371236 82.35921049 C-81.80309311 68.96696159 -79.85489756 55.63679764 -73.40153503 43.69621277 C-73.05824158 43.03572937 -72.71494812 42.37524597 -72.36125183 41.69474792 C-69.51851725 36.37287674 -66.16330925 31.69512449 -62.21403503 27.13371277 C-61.49216003 26.14371277 -60.77028503 25.15371277 -60.02653503 24.13371277 C-45.33934479 6.98286481 -21.72650217 -0.03578299 0 0 Z M-53.52653503 32.32121277 C-65.45121974 46.20426033 -71.36474085 62.05924708 -71.36120605 80.31446838 C-71.36488274 81.33736107 -71.36855943 82.36025377 -71.37234753 83.4141432 C-71.38335774 86.84069104 -71.38722374 90.26720851 -71.39103699 93.69377136 C-71.39730377 96.15142411 -71.40395076 98.60907591 -71.41094971 101.06672668 C-71.43015587 108.44145294 -71.44077584 115.81617114 -71.4496775 123.19091505 C-71.45406821 126.67055279 -71.45943306 130.15018903 -71.46466637 133.62982559 C-71.48167594 145.20910259 -71.49616709 156.78837867 -71.50341511 168.36766624 C-71.50532476 171.36959713 -71.50724513 174.37152801 -71.50920105 177.37345886 C-71.50968479 178.11950381 -71.51016853 178.86554876 -71.51066693 179.63420112 C-71.51895601 191.70252967 -71.54427511 203.77075873 -71.57678173 215.8390439 C-71.60994022 228.25136929 -71.62787186 240.66364428 -71.63105935 253.07601416 C-71.63321656 260.03608919 -71.64184846 266.99601924 -71.66752052 273.95605087 C-71.69164346 280.51094971 -71.69499836 287.06563597 -71.68475914 293.6205864 C-71.68426581 296.01659003 -71.69052584 298.41260685 -71.70431519 300.80857086 C-71.83867768 325.55436511 -67.85843783 344.73134472 -50.19841003 363.24699402 C-35.45911382 377.3039154 -17.13194163 382.30146127 2.84104919 382.26742554 C3.82622634 382.26969109 4.81140349 382.27195665 5.82643449 382.27429086 C9.11324969 382.28059885 12.40002331 382.27980355 15.68684387 382.27897644 C18.04951531 382.28196997 20.41218626 382.28537295 22.77485657 382.28915405 C29.18421197 382.2979796 35.59355401 382.30033159 42.00291491 382.30096984 C46.01124056 382.30146485 50.01956455 382.30375363 54.02788925 382.30646706 C67.30138837 382.31526856 80.57487942 382.31988736 93.84838147 382.31913658 C94.56303305 382.31909663 95.27768463 382.31905667 96.01399231 382.3190155 C96.72952473 382.31897462 97.44505714 382.31893374 98.18227236 382.31889162 C109.76680177 382.31848556 121.35129862 382.32804637 132.93581863 382.34215387 C144.85325259 382.35655129 156.7706707 382.36342217 168.68811357 382.36256009 C175.36970885 382.36222923 182.05126491 382.36512458 188.73285294 382.37573814 C195.02181007 382.38545533 201.31069541 382.38547352 207.59965515 382.37822151 C209.89973938 382.37718009 212.19982817 382.37951211 214.49990463 382.38558197 C237.67711326 382.51205471 237.67711326 382.51205471 259.78596497 376.13371277 C260.66639465 375.74699402 261.54682434 375.36027527 262.45393372 374.96183777 C279.15663574 366.76714991 289.85417026 352.10465622 296.81330872 335.24308777 C299.28144144 327.35299281 300.08062908 319.74677059 300.0533905 311.50990295 C300.06018717 309.9765627 300.06018717 309.9765627 300.06712115 308.41224587 C300.07970734 305.01190016 300.07814851 301.61171581 300.07649231 298.21134949 C300.08248122 295.76295772 300.0892876 293.31456784 300.09684753 290.86618042 C300.11265019 284.91983537 300.1189544 278.9735277 300.12007229 273.02716593 C300.12102574 268.18819592 300.12515078 263.34923888 300.13147354 258.51027298 C300.14907086 244.76067885 300.15831495 231.01111583 300.15681259 217.26151036 C300.15673268 216.52163207 300.15665277 215.78175379 300.15657043 215.01945496 C300.15644779 213.90826647 300.15644779 213.90826647 300.15632267 212.77462973 C300.15551053 200.7809141 300.17463408 188.78732428 300.20284717 176.79364501 C300.23165435 164.44898678 300.24538312 152.10438974 300.24365962 139.75969708 C300.24299834 132.84104984 300.24837447 125.92253445 300.27001572 119.00391769 C300.29025694 112.49163695 300.28947418 105.9795618 300.27498245 99.46726418 C300.27290191 97.08738739 300.27754979 94.70749292 300.28970337 92.32764626 C300.39646424 69.96002091 297.60968238 50.31101179 282.36018372 32.73136902 C268.4317012 18.6760718 251.00545506 10.30371492 231.05125427 10.002285 C229.26964344 9.99425777 227.48800323 9.99157684 225.70637512 9.99327087 C224.71852555 9.99029975 223.73067598 9.98732863 222.71289158 9.98426747 C219.41692817 9.97562574 216.12100128 9.97407606 212.82502747 9.97257996 C210.45574873 9.96794852 208.08647074 9.96292342 205.7171936 9.95753479 C198.61916542 9.9430739 191.52114504 9.93703008 184.42310476 9.93213928 C181.07198089 9.92955531 177.72085846 9.92576575 174.36973572 9.92201996 C163.21586254 9.90983245 152.06199126 9.89953266 140.90811157 9.89614487 C140.195288 9.8959253 139.48246443 9.89570573 138.74804014 9.89547952 C137.67637982 9.8951521 137.67637982 9.8951521 136.5830698 9.89481807 C135.1355648 9.89437462 133.68805981 9.89392805 132.24055481 9.89347839 C131.5225564 9.89325696 130.80455799 9.89303553 130.06480205 9.89280739 C118.44604281 9.88886433 106.82734647 9.87142304 95.20861149 9.84811887 C83.25274728 9.82433401 71.29691453 9.81193975 59.34102631 9.81077695 C52.63922336 9.8098641 45.9375148 9.80388679 39.23573303 9.78595734 C32.92540563 9.7694032 26.61523305 9.7673567 20.30489159 9.77609634 C17.99919404 9.77686284 15.69348792 9.77257566 13.38781166 9.76263809 C-12.22902059 9.65877509 -34.87639283 12.92849217 -53.52653503 32.32121277 Z " fill="#3B44A0" transform="translate(89.21403503417969,16.866287231445313)"/>
<path d="M0 0 C0.75219315 -0.00029205 1.50438629 -0.00058411 2.27937317 -0.00088501 C4.73585029 0.00049494 7.19201416 0.01599226 9.6484375 0.03173828 C11.36336095 0.03547317 13.07828654 0.0383179 14.79321289 0.04031372 C19.28454587 0.04791269 23.7757474 0.06752869 28.26702881 0.08972168 C32.85899071 0.110261 37.45097405 0.11933266 42.04296875 0.12939453 C51.03651576 0.15077843 60.02996566 0.18486877 69.0234375 0.22705078 C68.6934375 1.21705078 68.3634375 2.20705078 68.0234375 3.22705078 C66.0546875 4.14892578 66.0546875 4.14892578 63.5234375 4.97705078 C53.34907783 8.85230618 46.73962008 15.41592484 42.0234375 25.22705078 C39.5043089 32.05263852 38.57339312 38.2829258 38.546875 45.52783203 C38.53129547 46.48489548 38.51571594 47.44195892 38.49966431 48.42802429 C38.45261281 51.46519078 38.42462417 54.50213958 38.3984375 57.53955078 C38.34925132 61.51489459 38.29234779 65.49010777 38.234375 69.46533203 C38.2215448 70.436409 38.2087146 71.40748596 38.19549561 72.4079895 C38.04585544 82.35988808 37.56657931 92.28987785 37.0234375 102.22705078 C35.77844482 102.18104736 34.53345215 102.13504395 33.25073242 102.08764648 C28.58632996 101.91978525 23.92144188 101.77421166 19.25610352 101.63500977 C17.24549041 101.57198165 15.23505157 101.50308771 13.22485352 101.42797852 C-2.15730116 100.62882228 -2.15730116 100.62882228 -16.9765625 104.22705078 C-17.70842773 104.51829834 -18.44029297 104.8095459 -19.19433594 105.10961914 C-25.06290837 107.58640912 -32.08999705 112.45391987 -34.9765625 118.22705078 C-35.6365625 118.22705078 -36.2965625 118.22705078 -36.9765625 118.22705078 C-38.05181444 120.8793389 -39.07112401 123.51073532 -39.9765625 126.22705078 C-40.6365625 126.22705078 -41.2965625 126.22705078 -41.9765625 126.22705078 C-41.97434189 125.53658157 -41.97212128 124.84611237 -41.96983337 124.13471985 C-41.94771022 116.94846107 -41.93262646 109.76221197 -41.92163086 102.57592773 C-41.91716698 99.89394977 -41.91020891 97.21199549 -41.90112305 94.5300293 C-41.88899397 90.67512333 -41.88331963 86.8202536 -41.87890625 82.96533203 C-41.87374496 81.76620682 -41.86858368 80.5670816 -41.86326599 79.33161926 C-41.86319046 78.21083481 -41.86311493 77.09005035 -41.86303711 75.93530273 C-41.8608165 74.95157181 -41.85859589 73.96784088 -41.85630798 72.95429993 C-41.97430205 70.27831558 -42.37707917 67.8337074 -42.9765625 65.22705078 C-43.3065625 65.22705078 -43.6365625 65.22705078 -43.9765625 65.22705078 C-44.06491136 60.81051386 -44.11740237 56.3942093 -44.1640625 51.97705078 C-44.18919922 50.74212891 -44.21433594 49.50720703 -44.24023438 48.23486328 C-44.34531264 34.92495006 -42.17019328 23.06838394 -32.9375 13.00439453 C-23.61483398 4.19233389 -12.81104523 -0.13326466 0 0 Z " fill="#484FC3" transform="translate(140.9765625,75.77294921875)"/>
<path d="M0 0 C31.51686181 -0.04567146 63.03371416 -0.08104321 94.55060135 -0.10213066 C98.27543351 -0.10463193 102.0002656 -0.10722059 105.72509766 -0.10986328 C106.46661301 -0.1103879 107.20812836 -0.11091252 107.97211388 -0.11145304 C119.96265716 -0.12014449 131.95318117 -0.1359075 143.94371304 -0.15430559 C156.2563849 -0.17303974 168.5690467 -0.18412415 180.88173223 -0.18817699 C188.47310096 -0.19091477 196.06441522 -0.1995471 203.65576717 -0.21583293 C209.48676921 -0.22770147 215.3177367 -0.22890249 221.1487484 -0.22621536 C223.53352124 -0.22676397 225.91829621 -0.23072064 228.30305672 -0.23841095 C254.39487659 -0.31839879 277.33767048 3.52577221 297.14453125 22.0234375 C303.32740279 28.60982276 308.17857291 35.81965376 312.3125 43.8125 C312.62574219 44.40281006 312.93898438 44.99312012 313.26171875 45.60131836 C320.42645866 60.14704167 320.56638779 74.64399954 320.4699707 90.49951172 C320.47048037 92.84177243 320.47274161 95.18403332 320.47660828 97.52629089 C320.48199722 103.84616981 320.46269902 110.16575219 320.43850732 116.48557806 C320.4192873 122.44231473 320.41809397 128.39903487 320.41647889 134.35579826 C320.41261503 146.15359348 320.3902326 157.95127826 320.35668945 169.74902344 C320.32422432 181.17708805 320.30299934 192.60509439 320.29516602 204.03320312 C320.29443778 205.09049682 320.29443778 205.09049682 320.29369483 206.16914998 C320.29176576 209.00308686 320.28985363 211.83702374 320.28797873 214.67096066 C320.27998111 226.25459616 320.26272353 237.83822002 320.24434257 249.42184305 C320.24029767 252.05468657 320.23655749 254.68753058 320.2331202 257.32037497 C320.22331596 264.82243532 320.20878692 272.32445306 320.1862812 279.82648659 C320.18017656 282.09642082 320.17571656 284.36636018 320.17303848 286.63630104 C320.16903474 289.73932772 320.15889548 292.84227619 320.14717102 295.94528198 C320.14735538 296.83877126 320.14753975 297.73226053 320.14772969 298.65282524 C320.11847388 304.17343224 319.69444584 309.52201959 319 315 C318.67 315 318.34 315 318 315 C316.99901194 302.32266372 316.86894601 289.7218257 316.90234375 277.01098633 C316.90426714 274.84255508 316.90572895 272.67412338 316.9067688 270.50569153 C316.90990919 265.86784332 316.91614618 261.23001372 316.92483521 256.59217262 C316.93845159 249.24884307 316.94427123 241.90551949 316.94897461 234.56217957 C316.96003372 218.97894486 316.97957547 203.39572482 317 187.8125 C317.02205877 170.97424889 317.04262505 154.1360038 317.05341816 137.29774112 C317.05838075 130.00722142 317.06821007 122.71672988 317.08184814 115.42622149 C317.0893385 110.88375692 317.09262944 106.34129614 317.0948143 101.79882622 C317.09667669 99.70310867 317.10025822 97.60739179 317.10574722 95.5116806 C317.41578254 64.45859279 317.41578254 64.45859279 304.31640625 36.8203125 C303 35 303 35 303 33 C302.34 33 301.68 33 301 33 C299.66796875 31.390625 299.66796875 31.390625 298.1875 29.25 C295.76263877 25.89659435 293.36310853 23.45416028 290 21 C289.2884375 20.2575 289.2884375 20.2575 288.5625 19.5 C272.51416039 4.09359398 250.64849001 3.40645954 229.91064453 3.45410156 C227.38643764 3.44535576 224.86223629 3.43486648 222.33804321 3.42277527 C216.92851833 3.40074989 211.51918866 3.39070915 206.10962296 3.39188385 C198.28860517 3.39356099 190.46776422 3.37313845 182.64679383 3.34752855 C169.95415372 3.30655715 157.26154568 3.2831626 144.56884766 3.27099609 C132.24785283 3.25914785 119.92691823 3.23891315 107.60595703 3.20751953 C106.84496429 3.20558343 106.08397155 3.20364733 105.29991843 3.20165256 C101.48178471 3.1918872 97.66365144 3.18195823 93.84551835 3.17194796 C62.23037142 3.08927145 30.61523681 3.03548979 -1 3 C-0.67 2.01 -0.34 1.02 0 0 Z " fill="#565ACD" transform="translate(79,17)"/>
<path d="M0 0 C0.33 0 0.66 0 1 0 C1.00662029 0.74800369 1.01324059 1.49600739 1.02006149 2.26667786 C1.18304598 20.53185056 1.36739819 38.79669572 1.57505417 57.06141663 C1.67497185 65.89439078 1.76785871 74.72733091 1.84375 83.56054688 C1.90997432 91.26646218 1.98984289 98.97209957 2.08558011 106.67770672 C2.13573234 110.75156437 2.1794016 114.82524222 2.20668793 118.89932251 C2.23267798 122.74749306 2.27714404 126.5950408 2.33476639 130.44286346 C2.35265024 131.84222349 2.36423428 133.24168341 2.36842728 134.64115143 C2.44345341 155.91120424 9.06374017 173.35915085 23.79296875 188.890625 C38.29557917 202.62017516 56.87133624 207.13791305 76.33911133 207.15821838 C77.35458416 207.16315636 78.37005699 207.16809434 79.41630173 207.17318195 C82.80487666 207.18848939 86.19343274 207.19689921 89.58203125 207.20532227 C92.01667953 207.2149061 94.45132616 207.22491648 96.88597107 207.23532104 C102.12038476 207.25673305 107.35479993 207.27518781 112.5892334 207.29092598 C120.15724752 207.31368559 127.72523425 207.34181979 135.29322505 207.37124526 C147.57323816 207.41884673 159.85326252 207.46213096 172.13330078 207.50268555 C184.0587654 207.54207844 195.98422005 207.58351369 207.90966797 207.62768555 C208.64535409 207.63040982 209.38104021 207.63313409 210.13901985 207.63594092 C213.8299205 207.64962102 217.52082099 207.66334117 221.21172142 207.67708123 C251.80779361 207.79092898 282.40388692 207.89769189 313 208 C313 208.33 313 208.66 313 209 C264.21007939 209.36554482 215.41999269 209.69503652 166.62949371 209.97348022 C163.63162346 209.99060227 160.63375463 210.00794332 157.63588715 210.02554321 C142.00239266 210.11731871 126.36901988 210.19471245 110.73529053 210.23217773 C106.64933206 210.24241931 102.56350217 210.25973859 98.4776001 210.28344727 C93.7457919 210.31058345 89.01417348 210.32314929 84.28228951 210.32407379 C82.60303712 210.32669954 80.92378237 210.33424042 79.24458122 210.3476181 C55.86167193 210.5249965 36.84093154 205.03029449 19.25 188.6875 C15.0819993 184.30013084 12.02705461 179.21205086 9 174 C8.53464844 173.21882812 8.06929687 172.43765625 7.58984375 171.6328125 C0.92125619 159.51923143 -0.60538112 146.20392626 -0.45410156 132.59765625 C-0.45296911 131.13718701 -0.45361468 129.6767155 -0.45587158 128.21624756 C-0.45700417 124.30802139 -0.43373546 120.40030137 -0.40557575 116.49219131 C-0.38031501 112.38699259 -0.3782009 108.28177813 -0.37347412 104.17651367 C-0.36111597 96.42792278 -0.328393 88.67956167 -0.28807616 80.93107128 C-0.24313343 72.09897829 -0.22131524 63.26687344 -0.20129442 54.43469429 C-0.15965266 36.28966665 -0.08944232 18.1448519 0 0 Z " fill="#050D47" transform="translate(16,191)"/>
<path d="M0 0 C1.36299161 2.72598322 0.71744184 4.1465595 0.125 7.125 C-1.84807907 18.27023042 -2.07245741 29.42369903 -1.96875 40.71484375 C-2.01435176 45.50872882 -2.45597665 50.23979567 -3 55 C-1.515 54.505 -1.515 54.505 0 54 C2.22161615 53.93353346 4.44532992 53.93145118 6.66772461 53.96240234 C7.67822372 53.97440422 7.67822372 53.97440422 8.70913696 53.98664856 C10.9403088 54.01455941 13.17128687 54.050058 15.40234375 54.0859375 C16.96114139 54.10772671 18.51994381 54.12917538 20.07875061 54.15029907 C23.35309593 54.19583276 26.62735999 54.24503102 29.90161133 54.296875 C34.06703741 54.36260981 38.23252558 54.42012513 42.39810848 54.47490501 C45.62324305 54.51812842 48.84830764 54.56546083 52.07336617 54.61400223 C53.60690209 54.63667644 55.1404554 54.65820822 56.67402458 54.67850876 C65.48470599 54.79797691 74.22595283 55.11296154 83 56 C83 56.33 83 56.66 83 57 C54.62 57 26.24 57 -3 57 C-3 63.6 -3 70.2 -3 77 C-0.01839844 76.9685791 -0.01839844 76.9685791 3.0234375 76.93652344 C9.61312269 76.8718534 16.20273241 76.82598447 22.79264832 76.79275131 C26.78561229 76.77193407 30.77823086 76.74372511 34.77099609 76.69824219 C38.62896081 76.6545731 42.48659467 76.63081885 46.3447876 76.62049103 C47.81192224 76.61313718 49.27904009 76.59877712 50.74603271 76.57707977 C60.49318315 76.43873452 67.4971317 76.69290859 74.875 83.75 C79.30194767 90.52062585 79.30838824 97.71846971 79.30078125 105.5625 C79.30506638 106.5532251 79.3093515 107.5439502 79.31376648 108.56469727 C79.31948187 110.64891804 79.32003075 112.73315875 79.31567383 114.81738281 C79.31250939 117.99058241 79.33602403 121.16285256 79.36132812 124.3359375 C79.36360109 126.3697905 79.36430463 128.40364599 79.36328125 130.4375 C79.372491 131.37730713 79.38170074 132.31711426 79.39118958 133.28540039 C79.34201131 140.34798706 78.05799182 145.64623556 74.3125 151.75 C69.26082489 156.66514335 63.91414081 158.47392961 56.93359375 158.40039062 C56.13050781 158.37138672 55.32742187 158.34238281 54.5 158.3125 C53.69691406 158.30283203 52.89382812 158.29316406 52.06640625 158.28320312 C46.98178455 158.18843303 42.03408134 157.71008257 37 157 C37 156.67 37 156.34 37 156 C37.76143311 155.97494385 38.52286621 155.9498877 39.30737305 155.92407227 C42.76757376 155.80780952 46.22752254 155.68522022 49.6875 155.5625 C50.88568359 155.52318359 52.08386719 155.48386719 53.31835938 155.44335938 C55.05375977 155.38051758 55.05375977 155.38051758 56.82421875 155.31640625 C57.88729248 155.27974854 58.95036621 155.24309082 60.0456543 155.20532227 C62.78204532 155.0151475 65.32856732 154.6068493 68 154 C68 153.34 68 152.68 68 152 C68.804375 151.7525 69.60875 151.505 70.4375 151.25 C73.10789088 150.30489384 73.10789088 150.30489384 73.6875 148.25 C73.790625 147.5075 73.89375 146.765 74 146 C74.3302417 145.17290527 74.6604834 144.34581055 75.00073242 143.49365234 C76.31774803 138.88908519 76.30546043 134.6172438 76.30078125 129.8515625 C76.30720894 128.39452408 76.30720894 128.39452408 76.31376648 126.90805054 C76.31949365 124.85895566 76.32002196 122.80984046 76.31567383 120.76074219 C76.31251743 117.64222146 76.33598125 114.52465339 76.36132812 111.40625 C76.36360178 109.40885535 76.3643043 107.41145818 76.36328125 105.4140625 C76.372491 104.48985504 76.38170074 103.56564758 76.39118958 102.61343384 C76.34403064 95.94355196 75.32724658 90.68331777 71.6965332 84.93701172 C65.874819 79.41842042 58.77725303 80.10626288 51.1875 80.125 C49.76884769 80.10734255 48.35022413 80.08721414 46.93164062 80.06469727 C43.32430957 80.01517587 39.71792932 80.00150627 36.11029053 80.00140381 C34.06124161 80.00004074 32.01239007 79.99111635 29.96337891 79.97900391 C22.64168886 79.93721874 15.32155131 79.93816257 8 80 C8 79.67 8 79.34 8 79 C3.71 79 -0.58 79 -5 79 C-5.03937818 64.74334758 -4.99444244 50.49099119 -4.73754883 36.23632812 C-4.70382435 34.2240462 -4.67594995 32.21165876 -4.65356445 30.19921875 C-4.61987278 27.22097005 -4.56771268 24.24352811 -4.51171875 21.265625 C-4.50532883 20.3800592 -4.4989389 19.49449341 -4.49235535 18.58209229 C-4.15609315 4.15609315 -4.15609315 4.15609315 0 0 Z " fill="#2B338E" transform="translate(183,100)"/>
<path d="M0 0 C3.1489715 1.36911804 5.0478487 2.8752136 7.25 5.5 C8.03117187 6.41265625 8.03117187 6.41265625 8.828125 7.34375 C10 9 10 9 10 11 C10.66 11 11.32 11 12 11 C12 11.66 12 12.32 12 13 C12.5775 13.26296875 13.155 13.5259375 13.75 13.796875 C16.11845944 15.0633429 17.9465294 16.5232179 20 18.25 C26.8292454 23.64566827 34.28963359 27.8902348 43 29 C43 29.66 43 30.32 43 31 C57.36123791 33.01057331 71.62831371 33.12805524 86.10053635 33.07530212 C89.75433529 33.06208879 93.40810164 33.05527577 97.06192017 33.04992676 C102.35930139 33.0416531 107.65666871 33.03099312 112.95404053 33.01831055 C127.08132108 32.98515765 141.20862161 32.97358826 155.3359375 32.96875 C156.06137143 32.96846235 156.78680535 32.96817471 157.53422213 32.96787834 C190.97058935 32.95587982 224.40398477 33.1824514 257.83885765 33.48177338 C259.88315641 33.50007301 261.9274561 33.51826422 263.97175598 33.53643799 C280.31459225 33.68198349 296.65733819 33.83602636 313 34 C310.06312668 35.67585899 307.96010246 36.25102581 304.58848286 36.25726891 C303.26508867 36.26694224 303.26508867 36.26694224 301.91495925 36.276811 C300.94990579 36.2737138 299.98485232 36.2706166 298.99055481 36.26742554 C297.96190943 36.27195665 296.93326405 36.27648776 295.8734476 36.28115618 C292.41534234 36.29384889 288.9573936 36.29217661 285.49926758 36.29052734 C283.02382707 36.29650993 280.54838844 36.30331485 278.07295227 36.31088257 C272.0372078 36.32674565 266.00152519 36.33299273 259.96576563 36.33410732 C255.0532435 36.33505831 250.14073423 36.33917119 245.22821617 36.34550858 C231.28222629 36.36313142 217.33626719 36.372347 203.3902661 36.37084763 C202.63829713 36.37076772 201.88632817 36.3706878 201.11157227 36.37060547 C200.3586774 36.37052371 199.60578253 36.37044195 198.83007266 36.37035771 C186.65882231 36.36954676 174.48769631 36.38863316 162.31648187 36.4168822 C149.80137699 36.44569827 137.28633253 36.4594174 124.77119368 36.45769465 C117.75238056 36.45703326 110.73369741 36.46241336 103.71491432 36.48405075 C97.1017523 36.50430718 90.48881599 36.50350007 83.8756237 36.48901749 C81.45908328 36.48693804 79.04252543 36.49157818 76.62601471 36.5037384 C51.27739204 36.62294499 29.30789232 32.59472457 10.44433594 14.46289062 C0 3.88438134 0 3.88438134 0 0 Z " fill="#041033" transform="translate(21,373)"/>
<path d="M0 0 C0.33 0 0.66 0 1 0 C2.00522444 5.81091031 2.12983339 11.42949064 2.09765625 17.31884766 C2.09546585 18.83987595 2.09546585 18.83987595 2.0932312 20.39163208 C2.08943705 22.58560298 2.08333305 24.77957084 2.07516479 26.97352982 C2.06234644 30.45577863 2.05587088 33.9379891 2.05102539 37.42025757 C2.03768566 46.07279434 2.01354698 54.72529479 1.98962402 63.37780762 C1.96980979 70.6878273 1.95420035 77.99783307 1.94406128 85.30787277 C1.93762945 88.72038026 1.92511902 92.13282983 1.91235352 95.5453186 C0.64439318 114.57801073 0.64439318 114.57801073 6 132 C7.30144802 133.04115841 8.62797869 134.05377841 10 135 C10 135.66 10 136.32 10 137 C15.91591711 138.01785799 21.68769014 138.17676924 27.68359375 138.203125 C28.69792984 138.20882507 29.71226593 138.21452515 30.75733948 138.22039795 C32.89461231 138.22980877 35.0318994 138.23636627 37.16918945 138.24023438 C40.42359803 138.24995846 43.67737943 138.28102698 46.93164062 138.3125 C49.01562128 138.31902943 51.09960641 138.32428014 53.18359375 138.328125 C54.63082069 138.3466452 54.63082069 138.3466452 56.10728455 138.36553955 C62.96590503 138.34311211 68.62089246 137.46583523 74.3125 133.3125 C80.24699946 125.18003778 79.47420183 115.83703369 79.51171875 106.25 C79.52858421 104.62474222 79.54673694 102.99949733 79.56611633 101.37426758 C79.61342004 97.11977163 79.64335584 92.86532799 79.66955566 88.61065674 C79.69946082 84.25986405 79.7459567 79.90925122 79.79101562 75.55859375 C79.87682512 67.03915129 79.94426915 58.51969209 80 50 C79.34 49.67 78.68 49.34 78 49 C79.32 49 80.64 49 82 49 C82.09300734 58.60601299 82.16391997 68.21186906 82.20724869 77.8182354 C82.22805272 82.27970247 82.2562376 86.74085966 82.30175781 91.20214844 C82.34547383 95.51398861 82.36919103 99.82553223 82.37950897 104.13757706 C82.38685443 105.77610054 82.4011976 107.41460927 82.42292023 109.05300522 C82.64186962 126.26387917 82.64186962 126.26387917 78 134 C75.78125 136.25390625 75.78125 136.25390625 73.5 137.5625 C72.7471875 138.01753906 71.994375 138.47257813 71.21875 138.94140625 C67.52300578 140.70469266 64.24901499 141.12791515 60.17480469 141.16113281 C59.2199115 141.17074036 58.26501831 141.1803479 57.28118896 141.19024658 C55.74207855 141.1966214 55.74207855 141.1966214 54.171875 141.203125 C53.10890198 141.20882507 52.04592896 141.21452515 50.95074463 141.22039795 C48.70138543 141.2298402 46.45201244 141.23637885 44.20263672 141.24023438 C40.77676983 141.24992428 37.351507 141.28094921 33.92578125 141.3125 C31.73698272 141.31903205 29.54817991 141.32428173 27.359375 141.328125 C25.83240997 141.3466452 25.83240997 141.3466452 24.27459717 141.36553955 C16.88379049 141.34261397 11.02431853 140.55386898 5.1875 135.625 C0.62457406 130.14948887 -1.1240282 125.92723233 -1.12698364 118.8561554 C-1.12980347 117.81716095 -1.13262329 116.7781665 -1.13552856 115.70768738 C-1.13350433 114.57349869 -1.1314801 113.43931 -1.12939453 112.27075195 C-1.13114685 111.07208496 -1.13289917 109.87341797 -1.13470459 108.63842773 C-1.1383507 105.35563066 -1.13749774 102.07287392 -1.1343255 98.79007745 C-1.13179362 95.35656668 -1.1341416 91.9230586 -1.13571167 88.48954773 C-1.1375302 82.72699499 -1.13513457 76.96445508 -1.13037109 71.2019043 C-1.12492134 64.53193713 -1.12669757 57.8620005 -1.1321975 51.19203407 C-1.13672841 45.46884026 -1.13737952 39.74565566 -1.13475883 34.02246064 C-1.13319693 30.60249117 -1.13300009 27.18253608 -1.13629532 23.76256752 C-1.13881964 19.95537845 -1.13498473 16.14824905 -1.12939453 12.34106445 C-1.13141876 11.20080307 -1.13344299 10.06054169 -1.13552856 8.88572693 C-1.13270874 7.85519196 -1.12988892 6.82465698 -1.12698364 5.76289368 C-1.12660662 4.86196645 -1.12622959 3.96103922 -1.12584114 3.03281116 C-1 1 -1 1 0 0 Z " fill="#000C24" transform="translate(98,209)"/>
<path d="M0 0 C31.68707961 -0.04558781 63.37414992 -0.08100001 95.06125464 -0.10213066 C98.7989745 -0.10463219 102.5366943 -0.10722082 106.27441406 -0.10986328 C107.01855252 -0.1103879 107.76269098 -0.11091252 108.52937908 -0.11145304 C120.59134315 -0.12016469 132.65328822 -0.13593882 144.715241 -0.15430559 C157.08436521 -0.17298354 169.45347944 -0.18411225 181.82261717 -0.18817699 C189.46007879 -0.19092643 197.09748674 -0.1996221 204.73493184 -0.21583293 C210.58323482 -0.22761676 216.43150998 -0.22891669 222.27982521 -0.22621536 C224.684924 -0.22676801 227.09002472 -0.23077817 229.49511147 -0.23841095 C232.76564676 -0.24828583 236.03594791 -0.24599631 239.30648804 -0.24050903 C240.26950848 -0.24633472 241.23252892 -0.2521604 242.2247318 -0.25816262 C243.0960794 -0.25418052 243.96742699 -0.25019842 244.86517906 -0.24609566 C245.62082252 -0.2468551 246.37646598 -0.24761454 247.15500772 -0.24839699 C249 0 249 0 251 2 C230.37506757 2.17536711 209.7500663 2.34122854 189.125 2.5 C187.96791833 2.50892281 187.96791833 2.50892281 186.78746128 2.51802588 C140.31619572 2.87579692 93.84772324 3.0946889 47.375 3.0625 C45.50740902 3.06121597 45.50740902 3.06121597 43.60208893 3.05990601 C28.73470981 3.04889145 13.86735389 3.02943119 -1 3 C-0.67 2.01 -0.34 1.02 0 0 Z " fill="#4B51B7" transform="translate(79,17)"/>
<path d="M0 0 C1.01416992 0.38877319 1.01416992 0.38877319 2.04882812 0.78540039 C20.64170572 8.28287846 34.40511105 21.60691392 43.5625 39.3125 C43.87574219 39.90281006 44.18898438 40.49312012 44.51171875 41.10131836 C50.89394751 54.05840191 51.77872246 66.32687096 51.0625 80.4375 C51.00251466 81.96802027 50.94456686 83.49862177 50.88867188 85.02929688 C50.50989675 94.86211038 49.90174454 104.68199972 49.25 114.5 C48.92 114.5 48.59 114.5 48.25 114.5 C48.25523682 113.29577393 48.26047363 112.09154785 48.26586914 110.85083008 C48.28415877 106.3238196 48.29551836 101.7968123 48.30493164 97.26977539 C48.30991766 95.32152759 48.31670888 93.37328345 48.32543945 91.42504883 C48.71985763 60.15845781 48.71985763 60.15845781 35.56640625 32.3203125 C34.25 30.5 34.25 30.5 34.25 28.5 C33.59 28.5 32.93 28.5 32.25 28.5 C30.91796875 26.890625 30.91796875 26.890625 29.4375 24.75 C27.01263877 21.39659435 24.61310853 18.95416028 21.25 16.5 C20.775625 16.005 20.30125 15.51 19.8125 15 C7.17973346 2.87254413 -11.53350013 -1.11221418 -28.37451172 -1.04589844 C-29.77558524 -1.05466106 -31.17664881 -1.06515605 -32.57769775 -1.07722473 C-36.33302896 -1.10477715 -40.08802874 -1.10849634 -43.84344625 -1.10750484 C-47.78593224 -1.11066079 -51.72827468 -1.136334 -55.67068481 -1.15948486 C-63.11465314 -1.19984498 -70.55853431 -1.2203382 -78.00259507 -1.23345876 C-86.48651185 -1.24939704 -94.97028174 -1.2878409 -103.45411277 -1.32805204 C-120.88603118 -1.410177 -138.31792563 -1.46443969 -155.75 -1.5 C-155.75 -1.83 -155.75 -2.16 -155.75 -2.5 C-137.92979226 -2.6542273 -120.10954417 -2.80225005 -102.28922462 -2.9429636 C-94.01424102 -3.00844824 -85.73928292 -3.07593398 -77.46435547 -3.14819336 C-70.24874383 -3.2111973 -63.0331125 -3.27038268 -55.81743276 -3.32505554 C-51.99970438 -3.35411371 -48.18201229 -3.38503448 -44.36433792 -3.42053413 C-40.76440952 -3.45394853 -37.16447587 -3.48222221 -33.56447601 -3.50670624 C-31.62690752 -3.52117816 -29.68938094 -3.54096351 -27.75186157 -3.56095886 C-18.15703101 -3.61844692 -9.0225919 -3.51150152 0 0 Z " fill="#5C62D7" transform="translate(347.75,21.5)"/>
<path d="M0 0 C0.33 0 0.66 0 1 0 C1.01030746 1.0417186 1.02061493 2.08343719 1.03123474 3.15672302 C1.13044707 13.13874476 1.23327298 23.12072412 1.33933926 33.10267544 C1.39371628 38.23029987 1.44696571 43.35793001 1.49731445 48.4855957 C1.55584618 54.42663546 1.61798259 60.36762795 1.68359375 66.30859375 C1.69969602 67.7745741 1.69969602 67.7745741 1.71612358 69.27017021 C1.85904658 81.85326169 2.12638422 94.42379364 2.5625 107 C2.99633594 119.54698274 2.98311945 132.01701568 2.5625 144.5625 C2.50887127 146.38734373 2.45613957 148.21221403 2.40429688 150.03710938 C2.27969423 154.35844526 2.14357988 158.67925484 2 163 C1.34 163 0.68 163 0 163 C0 188.74 0 214.48 0 241 C-0.33 241 -0.66 241 -1 241 C-1.02349069 214.30244924 -1.04105784 187.60490006 -1.05181217 160.907341 C-1.05694109 148.50772249 -1.06391788 136.10811045 -1.07543945 123.70849609 C-1.0854914 112.88523717 -1.09187809 102.06198293 -1.09408849 91.23871946 C-1.09537799 85.52224362 -1.09834954 79.80578118 -1.10573006 74.08930969 C-1.13644618 49.37313695 -1.03075333 24.69764759 0 0 Z " fill="#747A93" transform="translate(8,90)"/>
<path d="M0 0 C2.02054871 -0.00114529 4.04109726 -0.00262354 6.06164551 -0.00440979 C11.40788214 -0.00738747 16.75408663 -0.00324455 22.10031891 0.00363541 C25.41223626 0.00782998 28.72415293 0.0107792 32.03607178 0.01351929 C82.84698135 0.06118676 82.84698135 0.06118676 106.46209717 0.39727783 C108.71761464 0.42880644 110.97319632 0.45608668 113.2288208 0.47869873 C138.71322986 0.75338331 158.14205879 4.83457395 177.390625 22.6953125 C185.61031753 31.10365371 195.86275996 45.39666478 195.75 57.6875 C195.63398438 58.45320313 195.51796875 59.21890625 195.3984375 60.0078125 C195.28757812 60.78898437 195.17671875 61.57015625 195.0625 62.375 C194.96710938 62.95507812 194.87171875 63.53515625 194.7734375 64.1328125 C194.4434375 64.1328125 194.1134375 64.1328125 193.7734375 64.1328125 C193.56589844 63.14023438 193.35835937 62.14765625 193.14453125 61.125 C188.70427015 41.07549421 179.33866547 25.45311646 161.7734375 14.1328125 C154.42392511 9.82675204 147.08825216 6.93179615 138.7734375 5.1328125 C138.14823023 4.97149149 137.52302296 4.81017048 136.87887001 4.64396095 C128.71683721 2.72162448 120.54861401 2.82474573 112.21630859 2.81396484 C110.55967731 2.80465216 108.90305066 2.79448152 107.24642944 2.78352356 C102.77609959 2.75636052 98.30580101 2.74111503 93.83541059 2.72809553 C89.15355333 2.7124047 84.47175937 2.68563362 79.78994751 2.6600647 C70.93631264 2.6133819 62.08266572 2.57658714 53.22897112 2.54339182 C43.14424856 2.50509603 33.05958972 2.45570551 22.97492099 2.40540767 C2.2411403 2.30224407 -18.49268079 2.21293327 -39.2265625 2.1328125 C-39.2265625 1.8028125 -39.2265625 1.4728125 -39.2265625 1.1328125 C-26.13848908 0.25481731 -13.1150772 -0.01500245 0 0 Z " fill="#565CD1" transform="translate(194.2265625,23.8671875)"/>
<path d="M0 0 C0.33 0 0.66 0 1 0 C1.00662029 0.74800369 1.01324059 1.49600739 1.02006149 2.26667786 C1.18304598 20.53185056 1.36739819 38.79669572 1.57505417 57.06141663 C1.67497185 65.89439078 1.76785871 74.72733091 1.84375 83.56054688 C1.90997432 91.26646218 1.98984289 98.97209957 2.08558011 106.67770672 C2.13573234 110.75156437 2.1794016 114.82524222 2.20668793 118.89932251 C2.23267798 122.74749306 2.27714404 126.5950408 2.33476639 130.44286346 C2.35265024 131.84222349 2.36423428 133.24168341 2.36842728 134.64115143 C2.43923725 154.71591357 8.20110754 172.07945843 22 187 C24.57863169 189.45080209 27.22670478 191.77251288 30 194 C29.01 194.99 29.01 194.99 28 196 C20.18940455 189.3693303 13.96597479 183.10428711 9 174 C8.54109375 173.22398437 8.0821875 172.44796875 7.609375 171.6484375 C0.9001266 159.56370695 -0.60521934 146.18937573 -0.45410156 132.59765625 C-0.45296911 131.13718701 -0.45361468 129.6767155 -0.45587158 128.21624756 C-0.45700417 124.30802139 -0.43373546 120.40030137 -0.40557575 116.49219131 C-0.38031501 112.38699259 -0.3782009 108.28177813 -0.37347412 104.17651367 C-0.36111597 96.42792278 -0.328393 88.67956167 -0.28807616 80.93107128 C-0.24313343 72.09897829 -0.22131524 63.26687344 -0.20129442 54.43469429 C-0.15965266 36.28966665 -0.08944232 18.1448519 0 0 Z " fill="#010D30" transform="translate(16,191)"/>
<path d="M0 0 C1.25383162 3.62218023 0.66264717 6.27520597 0 10 C-0.09820587 12.49165501 -0.14590885 14.98553624 -0.15821838 17.47909546 C-0.16315636 18.21109433 -0.16809434 18.9430932 -0.17318195 19.69727385 C-0.18848239 22.13851242 -0.19689724 24.57972485 -0.20532227 27.02099609 C-0.21490666 28.7755557 -0.22491707 30.53011303 -0.23532104 32.28466797 C-0.26231537 37.04034472 -0.28335452 41.79603133 -0.30332303 46.55174208 C-0.32521639 51.52455403 -0.35258867 56.49733575 -0.37937927 61.47012329 C-0.42926089 70.88347103 -0.47421651 80.29683558 -0.51740164 89.71021616 C-0.56681276 100.42843011 -0.62171651 111.14661372 -0.67708123 121.86479831 C-0.79083171 143.90983726 -0.89768582 165.9549052 -1 188 C-1.33 188 -1.66 188 -2 188 C-2.74823681 146.68878686 -3.14542598 105.37623986 -3.23217773 64.05828857 C-3.24254649 59.26986702 -3.25999049 54.48155123 -3.28344727 49.69317627 C-3.31083933 43.98817584 -3.32315973 38.28333424 -3.32407379 32.57826996 C-3.32674643 30.45987434 -3.33448436 28.34147824 -3.3476181 26.22312164 C-3.36467954 23.30334837 -3.3628787 20.38415848 -3.35644531 17.46435547 C-3.36566261 16.61804377 -3.37487991 15.77173206 -3.38437653 14.89977455 C-3.34514247 9.29596676 -2.23172826 5.14764977 0 0 Z " fill="#242769" transform="translate(19,77)"/>
<path d="M0 0 C46.53 0.33 93.06 0.66 141 1 C137.01704696 2.99147652 135.55784562 3.24828699 131.27996826 3.24050903 C130.11331635 3.24325836 128.94666443 3.24600769 127.74465942 3.24884033 C126.46863861 3.24164978 125.1926178 3.23445923 123.87792969 3.22705078 C122.51775114 3.2264865 121.15757199 3.22680355 119.7973938 3.22793579 C116.10761229 3.22850966 112.41796079 3.2167498 108.7282095 3.20278788 C104.87116085 3.19028627 101.01410924 3.18911047 97.15704346 3.18673706 C89.85437546 3.18052062 82.55176735 3.16410758 75.24912572 3.14403808 C66.93481021 3.1216842 58.62049185 3.11068694 50.30615377 3.10064721 C33.20406788 3.07974149 16.10204027 3.04456232 -1 3 C-0.67 2.01 -0.34 1.02 0 0 Z " fill="#222A67" transform="translate(193,406)"/>
<path d="M0 0 C5.77083543 5.77083543 6.22078881 12.94854936 6.30354309 20.71459961 C6.30263168 21.65440674 6.30172028 22.59421387 6.30078125 23.5625 C6.30506638 24.5532251 6.3093515 25.5439502 6.31376648 26.56469727 C6.31948187 28.64891804 6.32003075 30.73315875 6.31567383 32.81738281 C6.31250939 35.99058241 6.33602403 39.16285256 6.36132812 42.3359375 C6.36360109 44.3697905 6.36430463 46.40364599 6.36328125 48.4375 C6.372491 49.37730713 6.38170074 50.31711426 6.39118958 51.28540039 C6.34201131 58.34798706 5.05799182 63.64623556 1.3125 69.75 C-3.73917511 74.66514335 -9.08585919 76.47392961 -16.06640625 76.40039062 C-16.86949219 76.37138672 -17.67257813 76.34238281 -18.5 76.3125 C-19.30308594 76.30283203 -20.10617188 76.29316406 -20.93359375 76.28320312 C-26.01821545 76.18843303 -30.96591866 75.71008257 -36 75 C-36 74.67 -36 74.34 -36 74 C-35.23856689 73.97494385 -34.47713379 73.9498877 -33.69262695 73.92407227 C-30.23242624 73.80780952 -26.77247746 73.68522022 -23.3125 73.5625 C-21.51522461 73.50352539 -21.51522461 73.50352539 -19.68164062 73.44335938 C-18.52470703 73.40146484 -17.36777344 73.35957031 -16.17578125 73.31640625 C-15.11270752 73.27974854 -14.04963379 73.24309082 -12.9543457 73.20532227 C-10.21795468 73.0151475 -7.67143268 72.6068493 -5 72 C-5 71.34 -5 70.68 -5 70 C-4.195625 69.7525 -3.39125 69.505 -2.5625 69.25 C0.10789088 68.30489384 0.10789088 68.30489384 0.6875 66.25 C0.790625 65.5075 0.89375 64.765 1 64 C1.3302417 63.17290527 1.6604834 62.34581055 2.00073242 61.49365234 C3.31774803 56.88908519 3.30546043 52.6172438 3.30078125 47.8515625 C3.30720894 46.39452408 3.30720894 46.39452408 3.31376648 44.90805054 C3.31949365 42.85895566 3.32002196 40.80984046 3.31567383 38.76074219 C3.31251743 35.64222146 3.33598125 32.52465339 3.36132812 29.40625 C3.36360178 27.40885535 3.3643043 25.41145818 3.36328125 23.4140625 C3.372491 22.48985504 3.38170074 21.56564758 3.39118958 20.61343384 C3.34425441 13.97519965 2.43929175 8.5385434 -1.42211914 2.93701172 C-6.67150729 -1.74288683 -11.5991285 -1.89279667 -18.4375 -1.875 C-19.96407227 -1.9059375 -19.96407227 -1.9059375 -21.52148438 -1.9375 C-24.01514843 -1.98432937 -26.50598889 -2.0044667 -29 -2 C-29 -2.33 -29 -2.66 -29 -3 C-26.4803886 -3.36599397 -23.96006672 -3.71800851 -21.4375 -4.0625 C-20.73302734 -4.16626953 -20.02855469 -4.27003906 -19.30273438 -4.37695312 C-11.78898566 -5.38109466 -6.10848657 -4.88678925 0 0 Z " fill="#5A5ED9" transform="translate(256,182)"/>
<path d="M0 0 C2.25 0.0625 2.25 0.0625 5 1 C8.74075112 5.67593891 10.10393139 10.70209889 10.17700195 16.60986328 C10.19625481 17.97245773 10.19625481 17.97245773 10.21589661 19.36257935 C10.22328354 20.33863129 10.23067047 21.31468323 10.23828125 22.3203125 C10.246353 23.33415009 10.25442474 24.34798767 10.26274109 25.39254761 C10.27656463 27.53935038 10.28729451 29.68617497 10.29516602 31.83300781 C10.30666579 34.01699309 10.32708561 36.20095071 10.35668945 38.38476562 C10.39959916 41.55097433 10.41556947 44.7163482 10.42578125 47.8828125 C10.44328934 48.84671906 10.46079742 49.81062561 10.47883606 50.80374146 C10.45568576 58.14163007 9.24682241 65.33883187 4.22883606 70.99719238 C-0.2985762 75.12406158 -4.54850622 75.64684238 -10.5234375 75.52734375 C-11.50570313 75.47707031 -12.48796875 75.42679687 -13.5 75.375 C-15.01980469 75.33439453 -15.01980469 75.33439453 -16.5703125 75.29296875 C-19.04914631 75.22281308 -21.52340705 75.12459639 -24 75 C-20.75105957 72.83403971 -20.02556142 72.79177545 -16.3125 72.9375 C-7.60784346 73.18547879 -7.60784346 73.18547879 0.3125 69.875 C4.79500283 65.07976442 7.09248407 59.25461312 7.17700195 52.65551758 C7.18983719 51.78063187 7.20267242 50.90574615 7.21589661 50.00434875 C7.22328354 49.06060898 7.23067047 48.1168692 7.23828125 47.14453125 C7.246353 46.16892746 7.25442474 45.19332367 7.26274109 44.18815613 C7.27657531 42.1211423 7.28730042 40.0541057 7.29516602 37.98706055 C7.31233981 34.84183792 7.3562277 31.69767727 7.40039062 28.55273438 C7.41052143 26.54167437 7.41903632 24.53060546 7.42578125 22.51953125 C7.44328934 21.58591263 7.46079742 20.65229401 7.47883606 19.69038391 C7.45284169 11.77677515 5.06695336 6.08034403 0 0 Z " fill="#5D5FD6" transform="translate(300,81)"/>
<path d="M0 0 C0.33 0 0.66 0 1 0 C1.02321721 11.44871814 1.04096281 22.89743064 1.05181217 34.34616756 C1.05702051 39.66283439 1.06408082 44.97948505 1.07543945 50.29614258 C1.0863413 55.43139873 1.09229226 60.56663937 1.09487724 65.7019062 C1.09671837 67.65660407 1.10031355 69.61130113 1.10573006 71.56599236 C1.11303743 74.31346312 1.11398687 77.06087062 1.11352539 79.80834961 C1.11712067 80.60820786 1.12071594 81.4080661 1.12442017 82.23216248 C1.11480296 87.55777006 0.66361753 92.7149108 0 98 C-0.33 98 -0.66 98 -1 98 C-2.12564796 84.27042826 -2.15670017 70.58061113 -2.125 56.8125 C-2.12378143 55.66768158 -2.12256287 54.52286316 -2.12130737 53.34335327 C-2.10419502 39.66173067 -2.02453257 25.98705867 -1.5625 12.3125 C-1.52334473 11.13985596 -1.48418945 9.96721191 -1.44384766 8.7590332 C-1.13498032 1.13498032 -1.13498032 1.13498032 0 0 Z " fill="#4C52B4" transform="translate(398,234)"/>
<path d="M0 0 C0.66 0 1.32 0 2 0 C2.33 30.03 2.66 60.06 3 91 C2.01 91.495 2.01 91.495 1 92 C-0.2857682 88.14269541 -0.13111459 84.50819118 -0.11352539 80.48950195 C-0.11367142 79.62099609 -0.11381744 78.75249023 -0.1139679 77.85766602 C-0.11327076 74.98451243 -0.10548761 72.11142352 -0.09765625 69.23828125 C-0.09579137 67.24716731 -0.09436779 65.25605292 -0.09336853 63.26493835 C-0.0895489 58.02227514 -0.07972332 52.77963959 -0.06866455 47.5369873 C-0.05843854 42.18807347 -0.05386835 36.83915517 -0.04882812 31.49023438 C-0.03810058 20.99347742 -0.02103077 10.49674101 0 0 Z " fill="#0C1838" transform="translate(8,253)"/>
<path d="M0 0 C0.66 0 1.32 0 2 0 C2 6.6 2 13.2 2 20 C22.79 20 43.58 20 65 20 C65 20.33 65 20.66 65 21 C53.08042647 22.68367891 41.46614364 23.25880588 29.4375 23.125 C27.82878175 23.11492825 26.22005724 23.10580997 24.61132812 23.09765625 C20.74072531 23.07602495 16.87043603 23.04173842 13 23 C13 22.67 13 22.34 13 22 C8.71 22 4.42 22 0 22 C0 14.74 0 7.48 0 0 Z " fill="#262E84" transform="translate(178,157)"/>
<path d="M0 0 C0.33 0 0.66 0 1 0 C0.85973717 2.31284456 0.71264442 4.62527591 0.5625 6.9375 C0.48128906 8.22527344 0.40007813 9.51304688 0.31640625 10.83984375 C0 14 0 14 -1 15 C-1.12527187 17.89065236 -1.18610202 20.75856787 -1.20532227 23.65063477 C-1.21522186 24.55786285 -1.22512146 25.46509094 -1.23532104 26.39981079 C-1.26703595 29.41364894 -1.29173278 32.42750289 -1.31640625 35.44140625 C-1.33696716 37.52506431 -1.35796339 39.60871811 -1.37937927 41.69236755 C-1.43468909 47.18818731 -1.48405894 52.68404526 -1.53222656 58.17993164 C-1.5823767 63.78340064 -1.63809655 69.38681388 -1.69335938 74.99023438 C-1.80104986 85.993442 -1.90247048 96.99669795 -2 108 C-2.33 108 -2.66 108 -3 108 C-3.20097989 95.96868235 -3.38460282 83.93723345 -3.54658794 71.90532398 C-3.62235327 66.31732854 -3.70390485 60.72954706 -3.79907227 55.1418457 C-3.89084004 49.74086835 -3.96689609 44.33986966 -4.03244972 38.9385128 C-4.06003978 36.88656156 -4.09311687 34.83467591 -4.13199425 32.78290749 C-4.53324469 11.22342488 -4.53324469 11.22342488 -1 1 C-0.67 0.67 -0.34 0.34 0 0 Z " fill="#2C3376" transform="translate(12,71)"/>
<path d="M0 0 C0.66 0.33 1.32 0.66 2 1 C1.71000501 5.83324984 0.93298584 9.05046769 -2.43579102 12.65820312 C-8.22885607 17.62756251 -14.08155337 18.58042143 -21.5 18.3125 C-22.30308594 18.30283203 -23.10617188 18.29316406 -23.93359375 18.28320312 C-29.01821545 18.18843303 -33.96591866 17.71008257 -39 17 C-39 16.67 -39 16.34 -39 16 C-37.85785034 15.96241577 -37.85785034 15.96241577 -36.69262695 15.92407227 C-33.23242624 15.80780952 -29.77247746 15.68522022 -26.3125 15.5625 C-25.11431641 15.52318359 -23.91613281 15.48386719 -22.68164062 15.44335938 C-21.52470703 15.40146484 -20.36777344 15.35957031 -19.17578125 15.31640625 C-18.11270752 15.27974854 -17.04963379 15.24309082 -15.9543457 15.20532227 C-13.21795468 15.0151475 -10.67143268 14.6068493 -8 14 C-8 13.34 -8 12.68 -8 12 C-7.195625 11.7525 -6.39125 11.505 -5.5625 11.25 C-2.89210912 10.30489384 -2.89210912 10.30489384 -2.3125 8.25 C-2.209375 7.5075 -2.10625 6.765 -2 6 C-1.34490497 3.99617991 -0.68025637 1.99541868 0 0 Z " fill="#484CBF" transform="translate(259,240)"/>
<path d="M0 0 C15.18 0.33 30.36 0.66 46 1 C46 1.66 46 2.32 46 3 C30.82 3 15.64 3 0 3 C0 2.01 0 1.02 0 0 Z " fill="#121A4A" transform="translate(146,406)"/>
<path d="M0 0 C3.1489715 1.36911804 5.0478487 2.8752136 7.25 5.5 C8.03117187 6.41265625 8.03117187 6.41265625 8.828125 7.34375 C10 9 10 9 10 11 C10.66 11 11.32 11 12 11 C12 11.66 12 12.32 12 13 C12.56976563 13.25910156 13.13953125 13.51820313 13.7265625 13.78515625 C16.20336264 15.10866972 18.20032651 16.66342426 20.375 18.4375 C23.80077967 21.15547395 26.99946412 23.25617667 31 25 C31 25.33 31 25.66 31 26 C25.38145622 25.59665366 21.91375068 24.0664586 17.625 20.5625 C17.06772217 20.11946533 16.51044434 19.67643066 15.9362793 19.2199707 C9.40721021 13.89814573 2.8038191 8.12388611 0 0 Z " fill="#06152C" transform="translate(21,373)"/>
<path d="M0 0 C0.33 0 0.66 0 1 0 C2.31191997 6.95214281 2.11058058 13.88444903 2.0625 20.9375 C2.05798828 22.19369141 2.05347656 23.44988281 2.04882812 24.74414062 C2.03709681 27.82947663 2.020681 30.91471316 2 34 C1.67 34 1.34 34 1 34 C0.67 35.98 0.34 37.96 0 40 C-0.33 40 -0.66 40 -1 40 C-1.02467759 34.62484067 -1.04284928 29.24971415 -1.05493164 23.87451172 C-1.05996737 22.04507879 -1.06679627 20.21564991 -1.07543945 18.38623047 C-1.08753824 15.76008102 -1.09323583 13.13398468 -1.09765625 10.5078125 C-1.10281754 9.68693146 -1.10797882 8.86605042 -1.11329651 8.02029419 C-1.11387171 2.22774341 -1.11387171 2.22774341 0 0 Z " fill="#384092" transform="translate(98,139)"/>
<path d="M0 0 C3.91298458 0.71145174 7.06922167 2.52492857 10.5625 4.375 C19.07792075 8.75391446 27.4592696 11.09993109 37 12 C33.18991922 14.54005385 31.54901828 14.3610332 27 14 C17.43198723 12.03011502 8.08507517 7.41950394 0 2 C0 1.34 0 0.68 0 0 Z " fill="#01102C" transform="translate(45,386)"/>
<path d="M0 0 C1.18510414 0.02830147 1.18510414 0.02830147 2.39414978 0.05717468 C4.0627257 0.09901658 5.73123127 0.14374992 7.3996582 0.19116211 C9.95835519 0.26154028 12.51707042 0.3157799 15.07617188 0.36914062 C16.69664081 0.4117748 18.31708502 0.45536215 19.9375 0.5 C20.70522232 0.51468826 21.47294464 0.52937653 22.26393127 0.54450989 C27.67338673 0.72026173 27.67338673 0.72026173 29.90234375 2.94921875 C16.37234375 2.94921875 2.84234375 2.94921875 -11.09765625 2.94921875 C-11.09765625 2.28921875 -11.09765625 1.62921875 -11.09765625 0.94921875 C-7.34066914 -0.30311029 -3.90458076 -0.10586787 0 0 Z " fill="#19226C" transform="translate(190.09765625,154.05078125)"/>
<path d="M0 0 C0.33 0 0.66 0 1 0 C1.84903327 7.75424865 2.12751701 15.39046068 2.0625 23.1875 C2.05798828 24.23486328 2.05347656 25.28222656 2.04882812 26.36132812 C2.03720124 28.90761536 2.02086281 31.4537746 2 34 C0.515 34.495 0.515 34.495 -1 35 C-1.12330415 23.28610535 -0.8283506 11.68566021 0 0 Z " fill="#2E367A" transform="translate(98,162)"/>
<path d="M0 0 C9.24 0 18.48 0 28 0 C28 0.33 28 0.66 28 1 C17.25368837 2.47317858 6.85299084 3.28435784 -4 3 C-2.68 2.67 -1.36 2.34 0 2 C0 1.34 0 0.68 0 0 Z " fill="#3B42AB" transform="translate(215,177)"/>
<path d="M0 0 C3.34206338 2.65600932 4.40347923 6.14047969 5.6875 10.0625 C6.01947388 11.06035522 6.01947388 11.06035522 6.3581543 12.07836914 C8.0399488 17.44495791 8.59541866 22.37660157 8 28 C7.67 28 7.34 28 7 28 C6.7525 26.96875 6.505 25.9375 6.25 24.875 C4.45245671 14.17634901 4.45245671 14.17634901 0 5 C-0.04063832 3.33382885 -0.042721 1.66611905 0 0 Z " fill="#575ED0" transform="translate(390,61)"/>
<path d="M0 0 C1.92612073 2.8891811 3.1314352 5.5438347 4.4375 8.75 C4.87320312 9.8121875 5.30890625 10.874375 5.7578125 11.96875 C6.16773438 12.9690625 6.57765625 13.969375 7 15 C7.98973336 17.33795282 8.99351688 19.669197 10 22 C9.01 22 8.02 22 7 22 C6.03912864 20.10545176 5.08141031 18.20930419 4.125 16.3125 C3.59132813 15.25675781 3.05765625 14.20101563 2.5078125 13.11328125 C-1.42597765 4.99092179 -1.42597765 4.99092179 0 0 Z " fill="#01243B" transform="translate(12,350)"/>
<path d="M0 0 C0.33 0 0.66 0 1 0 C1.66 10.23 2.32 20.46 3 31 C2.34 31.33 1.68 31.66 1 32 C-0.13917218 28.58248347 -0.11338481 25.96512063 -0.09765625 22.36328125 C-0.09443359 21.06455078 -0.09121094 19.76582031 -0.08789062 18.42773438 C-0.07953531 17.05598892 -0.07107037 15.68424413 -0.0625 14.3125 C-0.05748335 12.92903805 -0.05292073 11.54557437 -0.04882812 10.16210938 C-0.03702529 6.77469605 -0.02056019 3.38736967 0 0 Z " fill="#020D27" transform="translate(8,313)"/>
<path d="M0 0 C0 0.66 0 1.32 0 2 C-8.0125322 3.03387512 -15.92905177 3.10466648 -24 3 C-23.67 2.34 -23.34 1.68 -23 1 C-15.36966266 -0.29327751 -7.719058 -0.09882151 0 0 Z " fill="#2F3791" transform="translate(215,177)"/>
<path d="M0 0 C7.05493238 0.94563467 12.00853225 5.71709794 16.5625 10.9375 C17.036875 11.618125 17.51125 12.29875 18 13 C14.33541065 12.57716277 12.29872065 10.72348813 9.59375 8.3359375 C8.00545086 7.00456911 6.37895754 5.91286015 4.625 4.8125 C3.75875 4.214375 2.8925 3.61625 2 3 C2 2.34 2 1.68 2 1 C1.34 0.67 0.68 0.34 0 0 Z " fill="#555BCF" transform="translate(358,28)"/>
<path d="M0 0 C4.10899888 2.88740462 6.34941774 5.22199872 8 10 C8.23361369 13.68195487 8.1769621 17.31656668 8 21 C7.67 21 7.34 21 7 21 C6.76216797 19.69675781 6.76216797 19.69675781 6.51953125 18.3671875 C5.14445339 11.57536647 4.09354729 6.81822041 -1 2 C-0.67 1.34 -0.34 0.68 0 0 Z " fill="#585BCB" transform="translate(253,180)"/>
<path d="M0 0 C5.56890517 0.47986031 10.67067568 1.29915181 16 3 C16 4.32 16 5.64 16 7 C10.3856009 5.43551329 5.13189662 3.83604813 0 1 C0 0.67 0 0.34 0 0 Z " fill="#092C43" transform="translate(48,399)"/>
<path d="M0 0 C1.6396875 0.2165625 1.6396875 0.2165625 3.3125 0.4375 C8.529258 1.09310693 13.76234747 1.54748223 19 2 C17.80078125 3.51171875 17.80078125 3.51171875 16 5 C10.55074422 5.34702662 5.04184877 3.99020346 0 2 C0 1.34 0 0.68 0 0 Z " fill="#042C45" transform="translate(64,404)"/>
<path d="M0 0 C0.33 0 0.66 0 1 0 C1.03738281 0.86882812 1.07476562 1.73765625 1.11328125 2.6328125 C1.56062997 10.47457238 2.62346689 15.43520033 7 22 C5.68 22 4.36 22 3 22 C-1.85939519 15.96256961 -1.10948542 10.3498805 -0.359375 3.03515625 C-0.24078125 2.03355469 -0.1221875 1.03195312 0 0 Z " fill="#021A31" transform="translate(99,322)"/>
<path d="M0 0 C0.33 0 0.66 0 1 0 C1.77040851 6.06696699 2.09706112 11.88514973 2 18 C1.01 18.33 0.02 18.66 -1 19 C-1.0272616 16.95840905 -1.04651345 14.91671037 -1.0625 12.875 C-1.07410156 11.73804688 -1.08570312 10.60109375 -1.09765625 9.4296875 C-1.005327 6.1870844 -0.61389906 3.18067388 0 0 Z " fill="#212A5D" transform="translate(98,191)"/>
<path d="M0 0 C0.99 0.33 1.98 0.66 3 1 C-0.07940424 4.25537019 -2.8804323 7.14619454 -7 9 C-9.8125 8.6875 -9.8125 8.6875 -12 8 C-11.484375 7.7525 -10.96875 7.505 -10.4375 7.25 C-4.32952516 4.55799979 -4.32952516 4.55799979 0 0 Z " fill="#001B31" transform="translate(174,340)"/>
<path d="M0 0 C0.99 0 1.98 0 3 0 C5.32086397 5.324335 4.91457003 9.43842552 4 15 C3.67 15 3.34 15 3 15 C2.01 10.05 1.02 5.1 0 0 Z " fill="#5F62D7" transform="translate(385,73)"/>
<path d="M0 0 C-1 3 -1 3 -2.77734375 4.203125 C-3.49019531 4.54859375 -4.20304687 4.8940625 -4.9375 5.25 C-6.00291016 5.78367187 -6.00291016 5.78367187 -7.08984375 6.328125 C-8.03537109 6.66070312 -8.03537109 6.66070312 -9 7 C-9.66 6.67 -10.32 6.34 -11 6 C-11 5.34 -11 4.68 -11 4 C-4.5 0 -4.5 0 0 0 Z " fill="#575CD0" transform="translate(126,79)"/>
<path d="M0 0 C3.87302138 1.14430177 7.00263439 2.23320098 10 5 C10 5.66 10 6.32 10 7 C6.98782888 6.35550393 4.48344164 5.34977818 1.75 3.9375 C1.04359375 3.57527344 0.3371875 3.21304687 -0.390625 2.83984375 C-0.92171875 2.56269531 -1.4528125 2.28554688 -2 2 C-1.34 1.34 -0.68 0.68 0 0 Z " fill="#646AD9" transform="translate(350,23)"/>
<path d="M0 0 C-0.33 0.99 -0.66 1.98 -1 3 C-2.98 3.33 -4.96 3.66 -7 4 C-7 3.34 -7 2.68 -7 2 C-9.31 2 -11.62 2 -14 2 C-14 1.67 -14 1.34 -14 1 C-9.32798795 -0.20568053 -4.78503708 -0.09382426 0 0 Z " fill="#4F54CB" transform="translate(210,76)"/>
<path d="M0 0 C4.28904235 1.5885342 6.32345526 4.43127368 9 8 C9 8.66 9 9.32 9 10 C8.01 10 7.02 10 6 10 C4.39453125 8.3203125 4.39453125 8.3203125 2.8125 6.125 C2.01779297 5.04605469 2.01779297 5.04605469 1.20703125 3.9453125 C0 2 0 2 0 0 Z " fill="#011128" transform="translate(21,373)"/>
<path d="M0 0 C0.66 0.33 1.32 0.66 2 1 C1.25 7.625 1.25 7.625 -1 11 C-1.66 11 -2.32 11 -3 11 C-2.32829194 7.1936543 -1.27253436 3.64793184 0 0 Z " fill="#6062D2" transform="translate(259,240)"/>
<path d="M0 0 C2.3125 0.1875 2.3125 0.1875 5 1 C6.9375 3.3125 6.9375 3.3125 8 6 C7.1875 8.3125 7.1875 8.3125 6 10 C5.0234375 8.27473958 4.046875 6.54947917 3.0703125 4.82421875 C2.10571419 3.18017711 1.05732941 1.58599412 0 0 Z " fill="#5B5DD1" transform="translate(300,81)"/>
<path d="M0 0 C0.66 0 1.32 0 2 0 C0 5 -2 10 -4 15 C-4.33 15 -4.66 15 -5 15 C-5.78287497 8.89357521 -3.10825151 4.99540421 0 0 Z " fill="#2F357E" transform="translate(19,55)"/>
<path d="M0 0 C2.18975773 3.28463659 2.99806563 6.20696275 4 10 C3.01 10 2.02 10 1 10 C-0.83691257 6.21812119 -1.15837626 4.05431692 0 0 Z " fill="#09132B" transform="translate(12,350)"/>
<path d="M0 0 C0.99 0 1.98 0 3 0 C3 0.66 3 1.32 3 2 C4.134375 2.12375 5.26875 2.2475 6.4375 2.375 C7.613125 2.58125 8.78875 2.7875 10 3 C10.33 3.66 10.66 4.32 11 5 C6.37390802 5.3227506 3.71973879 4.84450614 0 2 C0 1.34 0 0.68 0 0 Z " fill="#01091F" transform="translate(105,344)"/>
<path d="M0 0 C0.66 0.33 1.32 0.66 2 1 C-0.31 3.31 -2.62 5.62 -5 8 C-5.66 6.68 -6.32 5.36 -7 4 C-3.25 1 -3.25 1 -1 1 C-0.67 0.67 -0.34 0.34 0 0 Z " fill="#5D62AC" transform="translate(36,37)"/>
<path d="M0 0 C0.66 0.33 1.32 0.66 2 1 C-1.3 4.3 -4.6 7.6 -8 11 C-8 8 -8 8 -5.6875 5.5 C-4.800625 4.675 -3.91375 3.85 -3 3 C-2.401875 2.401875 -1.80375 1.80375 -1.1875 1.1875 C-0.795625 0.795625 -0.40375 0.40375 0 0 Z " fill="#2D3590" transform="translate(196,84)"/>
<path d="M0 0 C5.02705917 0.12047418 8.09872551 0.24587237 12.0625 3.5625 C12.701875 4.366875 13.34125 5.17125 14 6 C9.27934033 4.45730076 4.58335908 2.92205381 0 1 C0 0.67 0 0.34 0 0 Z " fill="#5057CE" transform="translate(339,29)"/>
<path d="M0 0 C1.00289062 0.10183594 2.00578125 0.20367187 3.0390625 0.30859375 C3.80992188 0.39238281 4.58078125 0.47617187 5.375 0.5625 C1.68782562 3.02061625 -0.26845704 2.87368164 -4.625 2.5625 C-5.615 1.9025 -6.605 1.2425 -7.625 0.5625 C-4.89657939 -0.80171031 -3.01546682 -0.31557211 0 0 Z " fill="#021737" transform="translate(76.625,397.4375)"/>
<path d="M0 0 C0.33 0 0.66 0 1 0 C0.67 5.61 0.34 11.22 0 17 C-0.33 17 -0.66 17 -1 17 C-1.93213141 10.73960391 -2.20927172 5.97802937 0 0 Z " fill="#454AA5" transform="translate(398,315)"/>
<path d="M0 0 C0.99 0.33 1.98 0.66 3 1 C1.63875 2.11375 1.63875 2.11375 0.25 3.25 C-2.3069423 5.37674584 -4.69110193 7.60229816 -7 10 C-7 9.01 -7 8.02 -7 7 C-6.34 7 -5.68 7 -5 7 C-4.731875 6.401875 -4.46375 5.80375 -4.1875 5.1875 C-3.01506533 3.02775192 -1.80630718 1.64209744 0 0 Z " fill="#575DD7" transform="translate(193,84)"/>
<path d="M0 0 C0.66 0.33 1.32 0.66 2 1 C-0.64 4.3 -3.28 7.6 -6 11 C-6.33 10.01 -6.66 9.02 -7 8 C-5.56640625 5.95703125 -5.56640625 5.95703125 -3.5625 3.8125 C-2.90378906 3.09707031 -2.24507812 2.38164063 -1.56640625 1.64453125 C-1.04949219 1.10183594 -0.53257813 0.55914062 0 0 Z " fill="#323785" transform="translate(29,42)"/>
<path d="M0 0 C0.66 0.33 1.32 0.66 2 1 C1.3503125 1.5878125 1.3503125 1.5878125 0.6875 2.1875 C-1.13582629 4.01796997 -1.13582629 4.01796997 -2.5625 6.625 C-4 9 -4 9 -6 10 C-4.25 3.25 -4.25 3.25 -2 1 C-1.34 0.67 -0.68 0.34 0 0 Z " fill="#565AD5" transform="translate(110,89)"/>
<path d="M0 0 C7.75 0.75 7.75 0.75 10 3 C2.25 3.125 2.25 3.125 0 2 C0 1.34 0 0.68 0 0 Z " fill="#020E29" transform="translate(64,404)"/>
<path d="M0 0 C0.33 0 0.66 0 1 0 C1 4.29 1 8.58 1 13 C0.01 12.67 -0.98 12.34 -2 12 C-2 11.01 -2 10.02 -2 9 C-1.34 9 -0.68 9 0 9 C0 6.03 0 3.06 0 0 Z " fill="#242E50" transform="translate(9,240)"/>
<path d="M0 0 C0.99 0.33 1.98 0.66 3 1 C-0.465 3.97 -0.465 3.97 -4 7 C-3.04065919 3.16263678 -2.76390737 2.40339772 0 0 Z " fill="#122155" transform="translate(110,188)"/>
<path d="M0 0 C0.33 0 0.66 0 1 0 C1.33 3.96 1.66 7.92 2 12 C1.01 12.33 0.02 12.66 -1 13 C-0.67 8.71 -0.34 4.42 0 0 Z " fill="#484CA6" transform="translate(396,335)"/>
<path d="M0 0 C2.9375 1.1875 2.9375 1.1875 3.9375 3.1875 C-2.21484375 2.6015625 -2.21484375 2.6015625 -4.0625 2.1875 C-4.3925 1.5275 -4.7225 0.8675 -5.0625 0.1875 C-3.0625 -0.8125 -3.0625 -0.8125 0 0 Z " fill="#4C51C9" transform="translate(298.0625,77.8125)"/>
<path d="M0 0 C0.33 0.66 0.66 1.32 1 2 C-6.42857143 2.28571429 -6.42857143 2.28571429 -10 0 C-6.64338305 -1.67830848 -3.63864406 -0.6353188 0 0 Z " fill="#5F65D7" transform="translate(343,28)"/>
</svg>
